<svg width="47" height="47" viewBox="0 0 47 47" fill="none" xmlns="http://www.w3.org/2000/svg">
<path d="M6.04174 22.8608C9.78492 31.2983 16.4224 36.5449 20.8611 34.571C25.2997 32.5971 25.8622 24.1596 22.119 15.7221C18.3758 7.28464 10.6645 -0.661952 6.22583 1.30168C1.7872 3.27555 2.30879 14.413 6.05197 22.8505L6.04174 22.8608Z" fill="#FFC878" stroke="#202020" stroke-width="1.5" stroke-linecap="round" stroke-linejoin="round"/>
<path d="M40.9577 22.8608C37.2145 31.2983 30.577 36.5449 26.1384 34.571C21.6997 32.5971 21.1372 24.1596 24.8804 15.7221C28.6236 7.28464 36.335 -0.661952 40.7736 1.30168C45.2122 3.27555 44.6907 14.413 40.9475 22.8505L40.9577 22.8608Z" fill="#FFC878" stroke="#202020" stroke-width="1.5" stroke-linecap="round" stroke-linejoin="round"/>
<path d="M23.5 46.0461C35.9264 46.0461 46 36.9936 46 25.8267C46 14.6599 35.9264 5.60742 23.5 5.60742C11.0736 5.60742 1 14.6599 1 25.8267C1 36.9936 11.0736 46.0461 23.5 46.0461Z" fill="#FFC878" stroke="#202020" stroke-width="1.5" stroke-linecap="round" stroke-linejoin="round"/>
<path d="M38.8105 24.9676H42.1037" stroke="#202020" stroke-width="1.5" stroke-linecap="round" stroke-linejoin="round"/>
<path d="M38.667 30.2551L41.1727 30.9301" stroke="#202020" stroke-width="1.5" stroke-linecap="round" stroke-linejoin="round"/>
<path d="M8.18967 24.9676H4.89648" stroke="#202020" stroke-width="1.5" stroke-linecap="round" stroke-linejoin="round"/>
<path d="M8.33332 30.2551L5.82764 30.9301" stroke="#202020" stroke-width="1.5" stroke-linecap="round" stroke-linejoin="round"/>
<path d="M14.2034 25.0392C15.0845 25.0392 15.7988 23.867 15.7988 22.421C15.7988 20.9751 15.0845 19.8029 14.2034 19.8029C13.3222 19.8029 12.6079 20.9751 12.6079 22.421C12.6079 23.867 13.3222 25.0392 14.2034 25.0392Z" fill="#202020"/>
<path d="M32.7966 25.0392C33.6778 25.0392 34.3921 23.867 34.3921 22.421C34.3921 20.9751 33.6778 19.8029 32.7966 19.8029C31.9155 19.8029 31.2012 20.9751 31.2012 22.421C31.2012 23.867 31.9155 25.0392 32.7966 25.0392Z" fill="#202020"/>
<path d="M23.4999 22.7278C23.2646 22.1244 22.7839 21.7153 22.2317 21.7153C21.4544 21.7153 20.8203 22.5335 20.8203 23.546C20.8203 24.9676 21.843 26.2562 23.4999 27.2176C25.1669 26.2562 26.1794 24.9676 26.1794 23.546C26.1794 22.5335 25.5453 21.7153 24.768 21.7153C24.2158 21.7153 23.7351 22.1346 23.4999 22.7278Z" fill="#202020"/>
<path d="M19.3887 30.6335C19.3887 30.6335 22.508 28.4449 24.9728 24.7119" stroke="#202020" stroke-width="1.5" stroke-linecap="round" stroke-linejoin="round"/>
<path d="M27.6114 30.6335C27.6114 30.6335 24.4921 28.4449 22.0273 24.7119" stroke="#202020" stroke-width="1.5" stroke-linecap="round" stroke-linejoin="round"/>
</svg>
