<svg width="42" height="36" viewBox="0 0 42 36" fill="none" xmlns="http://www.w3.org/2000/svg">
<path d="M37.9928 29.0048C38.8667 27.2651 37.9937 25.0605 36.0431 24.0807C34.0924 23.1009 31.8027 23.7169 30.9289 25.4566C30.0551 27.1963 30.928 29.4009 32.8787 30.3807C34.8293 31.3605 37.119 30.7444 37.9928 29.0048Z" fill="#202020"/>
<path d="M40.3803 32.2778C41.0794 30.8861 40.3798 29.1218 38.8178 28.3372C37.2558 27.5526 35.4228 28.0448 34.7238 29.4366C34.0247 30.8283 34.7243 32.5926 36.2863 33.3772C37.8483 34.1617 39.6812 33.6695 40.3803 32.2778Z" fill="#202020"/>
<path d="M20.9119 32.96C30.0536 32.96 37.4644 26.0529 37.4644 17.5325C37.4644 9.01211 30.0536 2.10498 20.9119 2.10498C11.7702 2.10498 4.35938 9.01211 4.35938 17.5325C4.35938 26.0529 11.7702 32.96 20.9119 32.96Z" fill="#FFDCA4" stroke="#202020" stroke-width="1.125" stroke-miterlimit="10"/>
<path d="M7.08914 23.4425C6.45164 23.84 5.70164 24.0725 4.90664 24.0725C2.50664 24.0725 0.556641 21.9875 0.556641 19.4225C0.556641 16.8575 2.49914 14.7725 4.90664 14.7725C5.50664 14.7725 6.07664 14.9 6.60164 15.14" fill="#FFDCA4"/>
<path d="M7.08914 23.4425C6.45164 23.84 5.70164 24.0725 4.90664 24.0725C2.50664 24.0725 0.556641 21.9875 0.556641 19.4225C0.556641 16.8575 2.49914 14.7725 4.90664 14.7725C5.50664 14.7725 6.07664 14.9 6.60164 15.14" stroke="#202020" stroke-width="1.125" stroke-linecap="round" stroke-linejoin="round"/>
<path d="M3.82715 18.1324L5.94215 19.8724" stroke="#202020" stroke-width="1.125" stroke-linecap="round" stroke-linejoin="round"/>
<path d="M34.7344 23.4425C35.3719 23.84 36.1219 24.0725 36.9169 24.0725C39.3169 24.0725 41.2669 21.9875 41.2669 19.4225C41.2669 16.8575 39.3244 14.7725 36.9169 14.7725C36.3169 14.7725 35.7469 14.9 35.2219 15.14" fill="#FFDCA4"/>
<path d="M34.7344 23.4425C35.3719 23.84 36.1219 24.0725 36.9169 24.0725C39.3169 24.0725 41.2669 21.9875 41.2669 19.4225C41.2669 16.8575 39.3244 14.7725 36.9169 14.7725C36.3169 14.7725 35.7469 14.9 35.2219 15.14" stroke="#202020" stroke-width="1.125" stroke-linecap="round" stroke-linejoin="round"/>
<path d="M37.9968 18.1324L35.8818 19.8724" stroke="#202020" stroke-width="1.125" stroke-linecap="round" stroke-linejoin="round"/>
<path d="M17.9705 22.565C18.6457 22.565 19.193 21.6718 19.193 20.57C19.193 19.4681 18.6457 18.575 17.9705 18.575C17.2954 18.575 16.748 19.4681 16.748 20.57C16.748 21.6718 17.2954 22.565 17.9705 22.565Z" fill="#202020"/>
<path d="M23.8504 22.565C24.5256 22.565 25.0729 21.6718 25.0729 20.57C25.0729 19.4681 24.5256 18.575 23.8504 18.575C23.1753 18.575 22.6279 19.4681 22.6279 20.57C22.6279 21.6718 23.1753 22.565 23.8504 22.565Z" fill="#202020"/>
<mask id="mask0_2917_27574" style="mask-type:luminance" maskUnits="userSpaceOnUse" x="4" y="2" width="33" height="31">
<path d="M20.9103 32.4651C29.7621 32.4651 36.9378 25.7796 36.9378 17.5326C36.9378 9.28561 29.7621 2.6001 20.9103 2.6001C12.0586 2.6001 4.88281 9.28561 4.88281 17.5326C4.88281 25.7796 12.0586 32.4651 20.9103 32.4651Z" fill="white"/>
</mask>
<g mask="url(#mask0_2917_27574)">
<path d="M13.463 -0.197441C11.8355 4.37006 16.208 10.8651 23.2355 14.3076C30.263 17.7501 37.283 16.8276 38.9105 12.2601C40.538 7.69256 36.1655 1.19756 29.138 -2.24494C22.1105 -5.68744 15.098 -4.77244 13.463 -0.197441Z" fill="#202020"/>
</g>
<path d="M36.7738 13.1225C34.7338 6.75498 28.4113 2.10498 20.9113 2.10498C13.4113 2.10498 7.08883 6.75498 5.04883 13.1225H36.7663H36.7738Z" fill="#FFA26E" stroke="#202020" stroke-width="1.125" stroke-linecap="round" stroke-linejoin="round"/>
<path d="M16.1863 16.385C23.5551 16.385 29.5287 15.1728 29.5287 13.6775C29.5287 12.1822 23.5551 10.97 16.1863 10.97C8.81739 10.97 2.84375 12.1822 2.84375 13.6775C2.84375 15.1728 8.81739 16.385 16.1863 16.385Z" fill="#FFA26E" stroke="#202020" stroke-width="1.125" stroke-linecap="round" stroke-linejoin="round"/>
</svg>
