<svg width="51" height="47" viewBox="0 0 51 47" fill="none" xmlns="http://www.w3.org/2000/svg">
<path d="M30.4199 21.92H40.9499C43.2299 21.92 45.0799 23.77 45.0799 26.05V30.82H30.4199V21.93V21.92Z" fill="#FFAB7D" stroke="#202020" stroke-width="1.5" stroke-linecap="round" stroke-linejoin="round"/>
<path d="M45.0801 29.87V39.72" stroke="#202020" stroke-width="1.5" stroke-linecap="round" stroke-linejoin="round"/>
<path d="M45.0801 45.45C47.6924 45.45 49.8101 43.3323 49.8101 40.72C49.8101 38.1077 47.6924 35.99 45.0801 35.99C42.4678 35.99 40.3501 38.1077 40.3501 40.72C40.3501 43.3323 42.4678 45.45 45.0801 45.45Z" fill="#D0D0D0" stroke="#202020" stroke-width="1.5" stroke-linecap="round" stroke-linejoin="round"/>
<path d="M14.6801 2.5H8.39014" stroke="#202020" stroke-width="1.5" stroke-linecap="round" stroke-linejoin="round"/>
<path d="M13.48 2.5H25.34C27.32 2.5 28.93 4.11 28.93 6.09V24.91H13.48V2.5Z" fill="#FFAB7D" stroke="#202020" stroke-width="1.5" stroke-linecap="round" stroke-linejoin="round"/>
<path d="M8.16 1H1.69C1.30892 1 1 1.30892 1 1.69V3.3C1 3.68108 1.30892 3.99 1.69 3.99H8.16C8.54108 3.99 8.85 3.68108 8.85 3.3V1.69C8.85 1.30892 8.54108 1 8.16 1Z" fill="#D0D0D0" stroke="#202020" stroke-width="1.5" stroke-linecap="round" stroke-linejoin="round"/>
<path d="M17.38 45.46C25.9902 45.46 32.97 38.4801 32.97 29.87C32.97 21.2599 25.9902 14.28 17.38 14.28C8.76992 14.28 1.79004 21.2599 1.79004 29.87C1.79004 38.4801 8.76992 45.46 17.38 45.46Z" fill="#D0D0D0" stroke="#202020" stroke-width="1.5" stroke-linecap="round" stroke-linejoin="round"/>
<path d="M17.3802 40.84C23.4387 40.84 28.3502 35.9286 28.3502 29.87C28.3502 23.8115 23.4387 18.9 17.3802 18.9C11.3216 18.9 6.41016 23.8115 6.41016 29.87C6.41016 35.9286 11.3216 40.84 17.3802 40.84Z" fill="white" stroke="#202020" stroke-width="1.5" stroke-linecap="round" stroke-linejoin="round"/>
<path d="M17.3801 33.17C19.2026 33.17 20.6801 31.6925 20.6801 29.87C20.6801 28.0475 19.2026 26.57 17.3801 26.57C15.5575 26.57 14.0801 28.0475 14.0801 29.87C14.0801 31.6925 15.5575 33.17 17.3801 33.17Z" fill="white" stroke="#202020" stroke-width="1.5" stroke-linecap="round" stroke-linejoin="round"/>
</svg>
