<svg width="42" height="36" viewBox="0 0 42 36" fill="none" xmlns="http://www.w3.org/2000/svg">
<path d="M35.1896 32.2676C35.0052 32.2676 34.8163 32.25 34.6231 32.2105C29.5811 31.2047 25.0793 29.8564 21.2144 28.2358C17.3495 29.8564 12.8477 31.2047 7.80576 32.2105C6.2554 32.5179 4.74017 31.5122 4.43273 29.9574C4.1209 28.4026 5.13106 26.8918 6.68581 26.58C9.422 26.0354 11.9913 25.381 14.3542 24.6387C8.80274 20.9934 5.71079 16.5531 5.71079 11.7747C5.71079 6.52191 9.98857 2.24414 15.2457 2.24414C17.4681 2.24414 19.5587 2.99956 21.2144 4.33471C22.8702 3.00395 24.9608 2.24414 27.1831 2.24414C32.4403 2.24414 36.7137 6.52191 36.7137 11.7747C36.7137 16.5531 33.6217 20.989 28.0791 24.6387C30.4419 25.381 33.0112 26.0354 35.7474 26.58C37.3022 26.8918 38.3079 28.4026 38.0005 29.9574C37.7282 31.3233 36.5292 32.2632 35.1896 32.2632V32.2676ZM15.2457 7.98443C13.1508 7.98443 11.4511 9.68851 11.4511 11.7791C11.4511 15.4112 15.0832 19.0434 21.2144 21.9816C27.3456 19.0434 30.9778 15.4112 30.9778 11.7791C30.9778 9.68851 29.2737 7.98443 27.1831 7.98443C25.7338 7.98443 24.4293 8.79255 23.7793 10.0926C23.2918 11.0676 22.2992 11.6825 21.21 11.6825C20.1208 11.6825 19.1282 11.0676 18.6407 10.0926C17.9907 8.79255 16.6863 7.98443 15.237 7.98443H15.2457Z" fill="#FF818B"/>
<path d="M21.5506 21.4853C27.348 18.5998 30.8308 15.0862 30.8308 11.6561C30.8308 9.64461 29.1926 8.00641 27.1767 8.00641C25.78 8.00641 24.5283 8.78379 23.9047 10.0355C23.3952 11.0588 22.3499 11.7044 21.208 11.7044C20.0661 11.7044 19.0208 11.0588 18.5113 10.0355C17.8877 8.78379 16.6316 8.00641 15.2393 8.00641C13.2278 8.00641 11.5896 9.64461 11.5896 11.6561" stroke="#202020" stroke-width="1.125" stroke-miterlimit="10" stroke-linecap="round"/>
<path d="M21.1643 28.306C17.2686 29.9179 12.7712 31.2487 7.83466 32.2324C7.63702 32.272 7.43499 32.2895 7.24174 32.2895C5.83631 32.2895 4.57582 31.297 4.29034 29.8652C3.96534 28.2358 5.0238 26.6459 6.65322 26.3209C9.13468 25.8246 11.4888 25.2317 13.6804 24.5597" stroke="#202020" stroke-width="1.125" stroke-miterlimit="10" stroke-linecap="round"/>
<path d="M5.56836 11.6605C5.56836 6.32424 9.90762 1.98499 15.2438 1.98499C17.4618 1.98499 19.548 2.72723 21.2125 4.03603C22.8815 2.72723 24.9633 1.98499 27.1812 1.98499C32.5174 1.98499 36.8567 6.32424 36.8567 11.6605C36.8567 14.9588 35.3942 19.8295 28.5076 24.4542" stroke="#202020" stroke-width="1.125" stroke-miterlimit="10" stroke-linecap="round" stroke-linejoin="round"/>
<path d="M11.5897 11.6604C11.5897 17.4534 21.5331 23.4836 35.7719 26.3295C37.4013 26.6546 38.4597 28.24 38.1347 29.8739C37.8493 31.3056 36.5888 32.2982 35.1833 32.2982C34.9857 32.2982 34.7881 32.2806 34.5904 32.2411C26.3731 30.5985 19.3679 28.0073 14.3347 24.7397C7.08798 20.0227 5.56836 15.0246 5.56836 11.6604" stroke="#202020" stroke-width="1.125" stroke-miterlimit="10" stroke-linecap="round"/>
</svg>
