<svg width="42" height="36" viewBox="0 0 42 36" fill="none" xmlns="http://www.w3.org/2000/svg">
<path d="M21.2096 34.805C29.7963 34.805 36.7571 27.149 36.7571 17.705C36.7571 8.26091 29.7963 0.60498 21.2096 0.60498C12.623 0.60498 5.66211 8.26091 5.66211 17.705C5.66211 27.149 12.623 34.805 21.2096 34.805Z" fill="#FFDCA4"/>
<mask id="mask0_2917_27610" style="mask-type:luminance" maskUnits="userSpaceOnUse" x="5" y="0" width="32" height="35">
<path d="M21.2096 34.805C29.7963 34.805 36.7571 27.149 36.7571 17.705C36.7571 8.26091 29.7963 0.60498 21.2096 0.60498C12.623 0.60498 5.66211 8.26091 5.66211 17.705C5.66211 27.149 12.623 34.805 21.2096 34.805Z" fill="white"/>
</mask>
<g mask="url(#mask0_2917_27610)">
<path d="M21.5084 6.65746C25.9529 6.65746 29.5559 2.37282 29.5559 -2.91254C29.5559 -8.19791 25.9529 -12.4825 21.5084 -12.4825C17.0639 -12.4825 13.4609 -8.19791 13.4609 -2.91254C13.4609 2.37282 17.0639 6.65746 21.5084 6.65746Z" fill="white"/>
<path d="M6.74086 14.2174C11.1854 14.2174 14.7884 9.93276 14.7884 4.64739C14.7884 -0.637972 11.1854 -4.92261 6.74086 -4.92261C2.29635 -4.92261 -1.30664 -0.637972 -1.30664 4.64739C-1.30664 9.93276 2.29635 14.2174 6.74086 14.2174Z" fill="white"/>
<path d="M35.6832 14.2174C40.1278 14.2174 43.7307 9.93276 43.7307 4.64739C43.7307 -0.637972 40.1278 -4.92261 35.6832 -4.92261C31.2387 -4.92261 27.6357 -0.637972 27.6357 4.64739C27.6357 9.93276 31.2387 14.2174 35.6832 14.2174Z" fill="white"/>
</g>
<path d="M21.2096 34.805C29.7963 34.805 36.7571 27.149 36.7571 17.705C36.7571 8.26091 29.7963 0.60498 21.2096 0.60498C12.623 0.60498 5.66211 8.26091 5.66211 17.705C5.66211 27.149 12.623 34.805 21.2096 34.805Z" stroke="#202020" stroke-width="1.125" stroke-miterlimit="10"/>
<path d="M8.73 24.245C8.0175 24.6875 7.1925 24.9425 6.315 24.9425C3.6525 24.9425 1.5 22.6325 1.5 19.79C1.5 16.9475 3.66 14.6375 6.315 14.6375C6.9825 14.6375 7.6125 14.78 8.19 15.0425" fill="#FFDCA4"/>
<path d="M8.73 24.245C8.0175 24.6875 7.1925 24.9425 6.315 24.9425C3.6525 24.9425 1.5 22.6325 1.5 19.79C1.5 16.9475 3.66 14.6375 6.315 14.6375C6.9825 14.6375 7.6125 14.78 8.19 15.0425" stroke="#202020" stroke-width="1.125" stroke-linecap="round" stroke-linejoin="round"/>
<path d="M5.11523 18.3724L7.45523 20.2924" stroke="#202020" stroke-width="1.125" stroke-linecap="round" stroke-linejoin="round"/>
<path d="M33.6445 24.245C34.357 24.6875 35.182 24.9425 36.0595 24.9425C38.722 24.9425 40.8745 22.6325 40.8745 19.79C40.8745 16.94 38.7145 14.6375 36.0595 14.6375C35.392 14.6375 34.762 14.78 34.1845 15.0425" fill="#FFDCA4"/>
<path d="M33.6445 24.245C34.357 24.6875 35.182 24.9425 36.0595 24.9425C38.722 24.9425 40.8745 22.6325 40.8745 19.79C40.8745 16.94 38.7145 14.6375 36.0595 14.6375C35.392 14.6375 34.762 14.78 34.1845 15.0425" stroke="#202020" stroke-width="1.125" stroke-linecap="round" stroke-linejoin="round"/>
<path d="M37.2599 18.3724L34.9199 20.2924" stroke="#202020" stroke-width="1.125" stroke-linecap="round" stroke-linejoin="round"/>
<path d="M17.9555 22.0024C18.7011 22.0024 19.3055 21.0118 19.3055 19.7899C19.3055 18.568 18.7011 17.5774 17.9555 17.5774C17.2099 17.5774 16.6055 18.568 16.6055 19.7899C16.6055 21.0118 17.2099 22.0024 17.9555 22.0024Z" fill="#202020"/>
<path d="M24.473 22.0024C25.2186 22.0024 25.823 21.0118 25.823 19.7899C25.823 18.568 25.2186 17.5774 24.473 17.5774C23.7275 17.5774 23.123 18.568 23.123 19.7899C23.123 21.0118 23.7275 22.0024 24.473 22.0024Z" fill="#202020"/>
<path d="M16.6271 25.85C18.0355 25.85 19.1771 24.7083 19.1771 23.3C19.1771 21.8917 18.0355 20.75 16.6271 20.75C15.2188 20.75 14.0771 21.8917 14.0771 23.3C14.0771 24.7083 15.2188 25.85 16.6271 25.85Z" fill="#FFDCA4" stroke="#202020" stroke-width="1.125" stroke-miterlimit="10"/>
<path d="M25.7395 25.85C27.1478 25.85 28.2895 24.7083 28.2895 23.3C28.2895 21.8917 27.1478 20.75 25.7395 20.75C24.3311 20.75 23.1895 21.8917 23.1895 23.3C23.1895 24.7083 24.3311 25.85 25.7395 25.85Z" fill="#FFDCA4" stroke="#202020" stroke-width="1.125" stroke-miterlimit="10"/>
<path d="M19.1768 23.3H23.2418" stroke="#202020" stroke-width="1.125" stroke-miterlimit="10"/>
<path d="M18.6299 10.1825H23.7899" stroke="#202020" stroke-width="1.125" stroke-linecap="round" stroke-linejoin="round"/>
<path d="M18.6299 13.265H23.7899" stroke="#202020" stroke-width="1.125" stroke-linecap="round" stroke-linejoin="round"/>
</svg>
